<?xml version="1.0" standalone="no"?>
<!DOCTYPE svg PUBLIC "-//W3C//DTD SVG 20010904//EN"
 "http://www.w3.org/TR/2001/REC-SVG-20010904/DTD/svg10.dtd">
<svg version="1.0" xmlns="http://www.w3.org/2000/svg"
 width="264.000000pt" height="265.000000pt" viewBox="-70 0 440.000000 255.000000"
 preserveAspectRatio="xMidYMid meet">
<metadata>
Created by potrace 1.10, written by Peter Selinger 2001-2011
</metadata>
<g transform="translate(0.000000,265.000000) scale(0.050000,-0.050000)"
fill="#00bfff" stroke="none">
<path d="M2230 5232 c-2083 -351 -2940 -2856 -1495 -4373 1627 -1710 4494
-568 4494 1791 0 1602 -1443 2844 -2999 2582z m750 -201 c547 -83 992 -301
1366 -668 1164 -1142 849 -3155 -606 -3876 -180 -89 -643 -247 -724 -247 l-66
0 68 42 c912 556 1531 1470 1557 2299 56 1819 -2061 2745 -3335 1460 -430
-434 -551 -744 -549 -1411 2 -852 387 -1447 1185 -1831 239 -115 227 -97 220
-345 l-6 -192 -180 59 c-688 229 -1237 708 -1519 1328 -39 86 -71 165 -71 175
0 11 -14 49 -30 84 -17 35 -43 131 -59 213 -15 82 -39 190 -51 239 -29 110
-19 623 12 662 12 16 33 94 45 174 13 80 32 161 41 180 10 19 55 124 100 234
404 978 1517 1586 2602 1421z m90 -629 c753 -195 1308 -865 1363 -1644 58
-804 -491 -1650 -1494 -2304 -178 -116 -597 -354 -624 -354 -8 0 -15 119 -15
265 0 412 -44 496 -320 602 -1221 475 -1548 2051 -616 2966 291 285 589 433
1036 515 118 21 515 -6 670 -46z"/>
</g>
</svg>
